<?xml version="1.0" encoding="UTF-8"?>
<svg width="332px" height="327px" viewBox="0 0 332 327" version="1.1" xmlns="http://www.w3.org/2000/svg" xmlns:xlink="http://www.w3.org/1999/xlink">
    <!-- Generator: Sketch 48.2 (47327) - http://www.bohemiancoding.com/sketch -->
    <title>logo</title>
    <desc>Created with Sketch.</desc>
    <defs></defs>
    <g id="Page-1" stroke="none" stroke-width="1" fill="none" fill-rule="evenodd">
        <g id="logo">
            <g id="Page-1" transform="translate(1.000000, 0.000000)">
                <polygon id="Fill-1" fill="#231F20" points="315.6025 170.8169 314.8955 174.9729 300.7845 177.1309 313.3385 184.1109 312.8445 187.0149 298.6885 189.4469 311.2895 196.1529 310.5805 200.3089 290.3965 189.5759 290.8905 186.6729 305.2405 184.2099 292.5085 177.1679 293.0025 174.2639"></polygon>
                <polygon id="Fill-2" fill="#231F20" points="302.6543 210.5867 298.4493 208.9937 296.0883 215.2297 292.6083 213.9117 294.9693 207.6757 289.3143 205.5347 286.0743 214.0897 282.5943 212.7717 287.3173 200.3017 307.6173 207.9897 303.0033 220.1697 299.5243 218.8517"></polygon>
                <polygon id="Fill-3" fill="#231F20" points="286.346 249.3677 283.232 247.3307 286.372 242.5307 271.322 232.6907 273.613 229.1877 288.662 239.0277 291.801 234.2277 294.915 236.2647"></polygon>
                <polygon id="Fill-4" fill="#231F20" points="262.4073 258.875 269.7843 250.92 262.6243 244.281 265.4693 241.212 281.3813 255.965 278.5363 259.034 272.5123 253.449 265.1353 261.405 271.1583 266.99 268.3133 270.059 252.4023 255.305 255.2473 252.236"></polygon>
                <polygon id="Fill-5" fill="#231F20" points="255.2161 276.1192 252.4761 272.5542 247.1901 276.6182 244.9221 273.6682 250.2081 269.6042 246.5211 264.8102 239.2691 270.3862 237.0001 267.4372 247.5721 259.3082 260.8031 276.5172 250.4781 284.4562 248.2101 281.5062"></polygon>
                <polygon id="Fill-6" fill="#231F20" points="214.14 290.3265 224.1 286.0165 220.222 277.0525 224.063 275.3905 232.682 295.3105 228.841 296.9735 225.578 289.4315 215.617 293.7405 218.881 301.2825 215.039 302.9435 206.42 283.0245 210.262 281.3625"></polygon>
                <path d="M198.3753,287.3169 C200.4763,288.5079 201.9353,290.5369 202.6433,293.7759 L205.3253,306.0409 L201.2373,306.9349 L198.4903,294.3679 C198.0663,292.4299 197.2933,291.3619 196.2353,290.7359 C195.1353,290.0559 193.7583,289.8509 192.3353,290.1609 C190.9113,290.4729 189.7463,291.2349 189.0293,292.3119 C188.3303,293.3209 188.0733,294.6149 188.4973,296.5529 L191.2453,309.1189 L187.1573,310.0129 L184.4753,297.7499 C183.7673,294.5099 184.2463,292.0569 185.6583,290.0979 C186.9753,288.2879 189.1473,287.0509 191.5393,286.5279 C193.9323,286.0049 196.4223,286.2209 198.3753,287.3169" id="Fill-7" fill="#231F20"></path>
                <polygon id="Fill-9" fill="#231F20" points="165.9263 298.5336 158.3453 311.7186 155.4023 311.7916 154.8603 290.0936 159.0443 289.9896 159.3463 302.0776 164.3413 293.4236 167.2553 293.3516 172.6753 301.7456 172.3733 289.6566 176.5583 289.5526 177.0993 311.2496 174.1543 311.3236"></polygon>
                <path d="M151.2035,289.6835 L138.1605,309.3685 L135.2635,308.8415 L130.0025,285.8195 L134.3035,286.6035 L135.4555,291.6995 L144.0275,293.2615 L146.9025,288.8995 L151.2035,289.6835 Z M141.8045,296.6375 L136.3745,295.6485 L137.9395,302.4575 L141.8045,296.6375 Z" id="Fill-10" fill="#231F20"></path>
                <polygon id="Fill-11" fill="#231F20" points="118.6736 304.979 115.9236 303.924 109.6916 286.39 104.6296 299.595 100.7206 298.096 108.4916 277.826 111.2426 278.881 117.4736 296.415 122.5366 283.211 126.4446 284.71"></polygon>
                <path d="M75.5829,283.1844 C73.5879,281.7614 72.8199,280.4904 72.5019,279.1194 C72.1289,277.5604 72.3739,275.8294 73.3999,274.3904 C74.2279,273.2284 75.6299,272.4374 76.6429,272.2464 C75.6369,270.3474 75.8109,267.8054 77.2159,265.8364 C78.2779,264.3474 79.8819,263.4334 81.5509,263.1764 C83.2379,262.8944 85.0339,263.2604 87.3059,264.8814 L94.1979,269.7984 L81.5919,287.4714 L75.5829,283.1844 Z M83.0459,278.2234 L80.6479,276.5124 C79.5869,275.7554 78.9279,275.6664 78.3039,275.7924 C77.7669,275.9054 77.2409,276.2154 76.8979,276.6954 C76.5559,277.1754 76.4339,277.7734 76.5029,278.3174 C76.5859,278.9484 76.8849,279.5434 77.9459,280.2994 L80.3449,282.0104 L83.0459,278.2234 Z M85.2209,267.9654 C84.0339,267.1184 83.1609,266.9544 82.3899,267.1274 C81.6799,267.2684 81.0569,267.6614 80.6059,268.2924 C80.1559,268.9234 79.9869,269.6414 80.0849,270.3584 C80.1719,271.1444 80.6119,271.9154 81.7989,272.7624 L85.2069,275.1934 L88.6289,270.3974 L85.2209,267.9654 Z" id="Fill-12" fill="#231F20"></path>
                <polygon id="Fill-14" fill="#231F20" points="62.1207 267.3003 65.2467 264.0703 60.4567 259.4353 63.0427 256.7633 67.8327 261.3973 72.0357 257.0533 65.4647 250.6943 68.0507 248.0213 77.6297 257.2893 62.5417 272.8833 53.1857 263.8303 55.7717 261.1573"></polygon>
                <polygon id="Fill-15" fill="#231F20" points="47.8967 257.7126 45.2337 254.4826 61.9827 240.6756 64.6457 243.9056"></polygon>
                <polygon id="Fill-16" fill="#231F20" points="39.3366 247.1178 37.7976 244.6058 43.5386 226.9078 31.4806 234.2938 29.2946 230.7238 47.8036 219.3848 49.3426 221.8968 43.6016 239.5958 55.6596 232.2098 57.8456 235.7788"></polygon>
                <g id="Group-21" transform="translate(14.000000, 177.528000)" fill="#231F20">
                    <path d="M20.0521,37.6112 C24.0041,36.1452 25.9061,32.0012 24.4501,28.0782 C23.7601,26.2182 22.5611,24.9442 21.1991,24.1272 L16.8111,25.7542 L18.7521,30.9862 L15.2641,32.2792 L11.8681,23.1252 L20.9061,19.7722 C23.8701,20.7222 26.5901,23.1522 27.9701,26.8712 C30.3201,33.2072 27.3481,39.3672 21.5071,41.5342 C15.6661,43.7012 9.4181,41.0272 7.0671,34.6922 C5.9461,31.6692 6.1201,28.6622 7.2141,26.1742 L10.8251,27.7102 C10.0571,29.3842 9.8211,31.4212 10.5661,33.4262 C11.9991,37.2912 16.1871,39.0442 20.0521,37.6112" id="Fill-17"></path>
                    <path d="M17.4712,13.2658 C18.5802,11.7928 19.2312,9.7438 18.8602,7.7948 C18.5132,5.9678 17.1432,4.9028 15.5902,5.1998 C12.8492,5.7208 13.2672,9.7428 12.1372,12.9248 C11.4822,14.7848 10.2752,16.4018 7.8692,16.8598 C4.0632,17.5838 1.2042,14.4998 0.5322,10.9678 C0.1202,8.8058 0.2562,6.6978 1.3652,4.4038 L4.8162,5.9558 C4.1862,6.9588 3.8492,8.5058 4.1162,9.9068 C4.4122,11.4598 5.4132,13.0678 7.0562,12.7548 C10.4982,12.1008 7.5602,2.4678 14.7462,1.1008 C18.5212,0.3818 21.7842,3.2628 22.5142,7.0998 C23.0592,9.9618 22.3752,12.8368 20.7832,15.4118 L17.4712,13.2658 Z" id="Fill-19"></path>
                </g>
                <polygon id="Fill-22" fill="#231F20" points="12.853 160.1572 13.479 155.8542 27.976 153.2752 14.855 146.3902 15.292 143.3842 29.83 140.5222 16.668 133.9232 17.294 129.6192 38.379 140.1812 37.942 143.1882 23.204 146.0852 36.51 153.0292 36.073 156.0362"></polygon>
                <polygon id="Fill-23" fill="#231F20" points="25.3209 118.7674 29.6869 120.3314 32.0049 113.8574 35.6169 115.1524 33.2999 121.6254 39.1709 123.7264 42.3509 114.8454 45.9649 116.1394 41.3279 129.0854 20.2519 121.5384 24.7809 108.8934 28.3939 110.1874"></polygon>
                <polygon id="Fill-24" fill="#231F20" points="41.597 78.4621 44.833 80.5231 41.655 85.5121 57.294 95.4771 54.974 99.1181 39.335 89.1521 36.156 94.1411 32.92 92.0791"></polygon>
                <polygon id="Fill-25" fill="#231F20" points="66.228 68.4279 58.675 76.6889 66.111 83.4849 63.197 86.6719 46.675 71.5669 49.588 68.3809 55.843 74.0989 63.395 65.8379 57.141 60.1209 60.053 56.9339 76.575 72.0379 73.663 75.2239"></polygon>
                <polygon id="Fill-26" fill="#231F20" points="73.6118 50.6019 76.4448 54.2719 81.8848 50.0709 84.2288 53.1069 78.7888 57.3079 82.5978 62.2419 90.0628 56.4799 92.4068 59.5159 81.5268 67.9159 67.8518 50.2029 78.4788 41.9979 80.8238 45.0349"></polygon>
                <polygon id="Fill-27" fill="#231F20" points="116.0612 36.008 105.7652 40.391 109.7092 49.658 105.7382 51.348 96.9722 30.755 100.9432 29.065 104.2622 36.861 114.5592 32.478 111.2392 24.682 115.2112 22.991 123.9772 43.584 120.0062 45.275"></polygon>
                <path d="M132.2863,39.2515 C130.1343,37.9985 128.6543,35.8885 127.9613,32.5395 L125.3423,19.8595 L129.5693,18.9865 L132.2533,31.9785 C132.6663,33.9825 133.4513,35.0935 134.5333,35.7515 C135.6603,36.4655 137.0783,36.6945 138.5503,36.3905 C140.0213,36.0865 141.2333,35.3145 141.9843,34.2125 C142.7183,33.1785 142.9983,31.8485 142.5833,29.8455 L139.9003,16.8525 L144.1273,15.9795 L146.7463,28.6585 C147.4383,32.0085 146.9153,34.5315 145.4353,36.5355 C144.0553,38.3875 141.7993,39.6365 139.3263,40.1485 C136.8523,40.6585 134.2863,40.4045 132.2863,39.2515" id="Fill-28" fill="#231F20"></path>
                <polygon id="Fill-30" fill="#231F20" points="165.9619 28.1434 174.1289 14.7564 177.1659 14.7594 177.1419 37.1394 172.8269 37.1354 172.8399 24.6664 167.4599 33.4524 164.4539 33.4504 159.0929 24.6524 159.0789 37.1204 154.7629 37.1154 154.7869 14.7374 157.8239 14.7404"></polygon>
                <path d="M180.8822,37.5218 L194.7512,17.5118 L197.7282,18.1188 L202.6532,41.9628 L198.2362,41.0628 L197.1592,35.7848 L188.3572,33.9898 L185.2992,38.4238 L180.8822,37.5218 Z M190.7202,30.5558 L196.2972,31.6938 L194.8322,24.6408 L190.7202,30.5558 Z" id="Fill-31" fill="#231F20"></path>
                <polygon id="Fill-32" fill="#231F20" points="214.8717 22.5334 217.6777 23.6994 223.5987 41.9464 229.1927 28.4824 233.1787 30.1384 224.5907 50.8064 221.7867 49.6404 215.8657 31.3934 210.2727 44.8574 206.2857 43.2004"></polygon>
                <path d="M258.6913,46.4443 C260.6913,47.9863 261.4363,49.3263 261.7113,50.7493 C262.0373,52.3733 261.7183,54.1473 260.6063,55.5913 C259.7083,56.7553 258.2333,57.5183 257.1823,57.6773 C258.1483,59.6723 257.8713,62.2853 256.3483,64.2613 C255.1973,65.7553 253.5093,66.6353 251.7803,66.8373 C250.0313,67.0643 248.1933,66.6183 245.9153,64.8603 L238.9983,59.5323 L252.6613,41.7993 L258.6913,46.4443 Z M248.1803,61.7623 C249.3723,62.6803 250.2633,62.8823 251.0653,62.7343 C251.8023,62.6163 252.4593,62.2343 252.9483,61.6003 C253.4363,60.9673 253.6373,60.2353 253.5643,59.4913 C253.5043,58.6783 253.0793,57.8673 251.8893,56.9493 L248.4693,54.3133 L244.7603,59.1273 L248.1803,61.7623 Z M250.8103,51.2743 L253.2173,53.1283 C254.2823,53.9483 254.9583,54.0663 255.6053,53.9583 C256.1643,53.8633 256.7163,53.5653 257.0883,53.0823 C257.4593,52.6013 257.6093,51.9903 257.5573,51.4263 C257.4963,50.7733 257.2093,50.1473 256.1463,49.3293 L253.7393,47.4733 L250.8103,51.2743 Z" id="Fill-33" fill="#231F20"></path>
                <polygon id="Fill-35" fill="#231F20" points="271.9775 63.4065 268.6175 66.5975 273.3505 71.5805 270.5705 74.2225 265.8365 69.2405 261.3175 73.5335 267.8125 80.3695 265.0315 83.0115 255.5645 73.0475 271.7865 57.6355 281.0335 67.3685 278.2525 70.0105"></polygon>
                <polygon id="Fill-36" fill="#231F20" points="286.2119 73.9394 288.8029 77.3914 270.9049 90.8244 268.3139 87.3724"></polygon>
                <polygon id="Fill-37" fill="#231F20" points="294.5931 85.3447 296.0491 88.0107 289.2321 105.9437 302.0281 98.9547 304.0971 102.7417 284.4561 113.4717 282.9991 110.8067 289.8171 92.8737 277.0221 99.8637 274.9511 96.0757"></polygon>
                <g id="Group-46" transform="translate(0.000000, 0.528000)">
                    <path d="M298.3807,118.0493 C294.2277,119.3403 292.0397,123.5013 293.3197,127.6233 C293.9267,129.5783 295.0917,130.9563 296.4477,131.8743 L301.0587,130.4423 L299.3517,124.9463 L303.0147,123.8073 L306.0027,133.4263 L296.5077,136.3763 C293.5067,135.2323 290.8417,132.5783 289.6277,128.6703 C287.5597,122.0133 290.9637,115.8333 297.0997,113.9263 C303.2377,112.0203 309.5237,115.1223 311.5927,121.7783 C312.5787,124.9533 312.2317,128.0423 310.9677,130.5433 L307.3337,128.7613 C308.2157,127.0793 308.5737,124.9933 307.9187,122.8863 C306.6567,118.8263 302.4417,116.7873 298.3807,118.0493" id="Fill-38" fill="#231F20"></path>
                    <path d="M299.6505,143.2678 C298.4225,144.7188 297.6305,146.7908 297.8975,148.8178 C298.1455,150.7198 299.4945,151.8978 301.1095,151.6858 C303.9635,151.3108 303.7725,147.1438 305.1245,143.9358 C305.9095,142.0608 307.2485,140.4658 309.7525,140.1368 C313.7165,139.6168 316.4765,142.9628 316.9585,146.6408 C317.2535,148.8918 316.9905,151.0548 315.7105,153.3498 L312.2495,151.5468 C312.9565,150.5518 313.3955,148.9778 313.2035,147.5198 C312.9915,145.9028 312.0575,144.1878 310.3455,144.4128 C306.7625,144.8818 309.2165,154.9768 301.7345,155.9568 C297.8035,156.4728 294.6165,153.3118 294.0915,149.3168 C293.7005,146.3368 294.5765,143.4168 296.3685,140.8608 L299.6505,143.2678 Z" id="Fill-40" fill="#231F20"></path>
                    <path d="M164.9605,275.15 C228.0805,275.15 279.2505,224.821 279.2505,162.736 C279.2505,100.652 228.0805,50.322 164.9605,50.322 C101.8405,50.322 50.6705,100.652 50.6705,162.736 C50.6705,224.821 101.8405,275.15 164.9605,275.15 Z" id="Stroke-42" stroke="#231F20" stroke-width="2.3"></path>
                    <path d="M164.9605,324.85 C255.9825,324.85 329.7715,252.269 329.7715,162.736 C329.7715,73.203 255.9825,0.622 164.9605,0.622 C73.9385,0.622 0.1495,73.203 0.1495,162.736 C0.1495,252.269 73.9385,324.85 164.9605,324.85 Z" id="Stroke-44" stroke="#231F20" stroke-width="2.3"></path>
                </g>
            </g>
        </g>
    </g>
</svg>