<?xml version="1.0" encoding="UTF-8"?>
<svg width="18px" height="19px" viewBox="0 0 18 19" version="1.1" xmlns="http://www.w3.org/2000/svg" xmlns:xlink="http://www.w3.org/1999/xlink">
    <!-- Generator: Sketch 48.2 (47327) - http://www.bohemiancoding.com/sketch -->
    <title>restart</title>
    <desc>Created with Sketch.</desc>
    <defs></defs>
    <g id="Page-1" stroke="none" stroke-width="1" fill="none" fill-rule="evenodd">
        <g id="restart" stroke="#BB9008">
            <path d="M9.09237561,16.4994428 C13.1919441,16.449962 16.5,13.1112999 16.5,9 C16.5,4.85786438 13.1421356,1.5 9,1.5 C4.85786438,1.5 1.5,4.85786438 1.5,9 C1.5,11.0993589 2.36646686,13.0584013 3.86487818,14.4663472 L9.09237561,16.4994428 Z" id="Oval" transform="translate(9.000000, 9.000000) scale(1, -1) rotate(-90.000000) translate(-9.000000, -9.000000) "></path>
            <g id="Page-1" transform="translate(15.008702, 4.058058) scale(-1, 1) rotate(137.000000) translate(-15.008702, -4.058058) translate(13.008702, 1.058058)">
                <path d="M0,0 C0,1.65708556 1.79094757,3 4,3" id="Stroke-1"></path>
                <path d="M0,6 C0,4.34291444 1.79094757,3 4,3" id="Stroke-3"></path>
            </g>
        </g>
    </g>
</svg>